<?xml version="1.0" standalone="no"?><!DOCTYPE svg PUBLIC "-//W3C//DTD SVG 1.1//EN" "http://www.w3.org/Graphics/SVG/1.1/DTD/svg11.dtd"><svg t="1712217977682" class="icon" viewBox="0 0 1024 1024" version="1.1" xmlns="http://www.w3.org/2000/svg" p-id="16140" xmlns:xlink="http://www.w3.org/1999/xlink" width="200" height="200"><path d="M325.485714 548.571429l-51.2 190.171428c-3.657143 10.971429 0 14.628571 7.314286 21.942857s14.628571 10.971429 21.942857 7.314286l190.171429-51.2-40.228572-40.228571-124.342857 32.914285 36.571429-124.342857-40.228572-36.571428z" fill="#999999" p-id="16141"></path><path d="M497.371429 716.8L1002.057143 212.114286c29.257143-29.257143 29.257143-80.457143-7.314286-113.371429L950.857143 51.2c-32.914286-32.914286-87.771429-36.571429-113.371429-7.314286L329.142857 548.571429l168.228572 168.228571zM874.057143 80.457143c10.971429-10.971429 29.257143-10.971429 40.228571 3.657143l47.542857 47.542857c10.971429 14.628571 14.628571 32.914286 3.657143 43.885714l-54.857143 54.857143-91.428571-91.428571 54.857143-58.514286z m-3.657143 190.171428L493.714286 643.657143 402.285714 552.228571 778.971429 175.542857l91.428571 95.085714z" fill="#999999" p-id="16142"></path><path d="M1002.057143 533.942857c-14.628571 0-21.942857 10.971429-21.942857 21.942857v325.485715c0 40.228571-29.257143 69.485714-69.485715 69.485714H117.028571c-40.228571 0-69.485714-29.257143-69.485714-69.485714V138.971429c0-40.228571 29.257143-69.485714 69.485714-69.485715h373.028572c14.628571 0 21.942857-10.971429 21.942857-21.942857s-10.971429-21.942857-21.942857-21.942857H91.428571C40.228571 21.942857 0 65.828571 0 117.028571v789.942858c0 51.2 40.228571 91.428571 91.428571 91.428571h837.485715c51.2 0 91.428571-40.228571 91.428571-91.428571v-347.428572c3.657143-14.628571-7.314286-25.6-18.285714-25.6z" fill="#8a8b8b" p-id="16143"></path></svg>