<?xml version="1.0" standalone="no"?><!DOCTYPE svg PUBLIC "-//W3C//DTD SVG 1.1//EN" "http://www.w3.org/Graphics/SVG/1.1/DTD/svg11.dtd"><svg t="1712218696490" class="icon" viewBox="0 0 1024 1024" version="1.1" xmlns="http://www.w3.org/2000/svg" p-id="20295" xmlns:xlink="http://www.w3.org/1999/xlink" width="200" height="200"><path d="M1010.346027 395.946227c-10.23998-39.252923-23.892953-75.092853-40.95992-110.932784-17.066967-34.132933-39.252923-68.266867-64.852874-97.27981-25.59995-30.71994-54.612893-58.026887-87.03983-81.91984-17.066967-11.946977-34.132933-17.066967-54.612893-13.652973-18.772963 3.412993-35.83993 11.946977-47.786907 29.012943-11.946977 15.35997-17.066967 34.132933-13.652973 52.906897 3.412993 20.47996 11.946977 35.83993 29.012943 47.786907a361.465294 361.465294 0 0 1 110.932784 127.99975c25.59995 51.1999 37.546927 105.812793 37.546926 163.83968 0 49.492903-10.23998 97.27981-29.012943 141.652723s-44.372913 83.626837-78.506847 116.052773c-34.132933 32.426937-71.67986 59.732883-116.052773 78.506847-44.372913 20.47996-92.15982 29.012943-143.35972 29.012943s-97.27981-10.23998-141.652723-29.012943c-44.372913-18.772963-83.626837-46.07991-116.052774-78.506847s-59.732883-71.67986-78.506846-116.052773c-18.772963-44.372913-29.012943-92.15982-29.012944-141.652723 0-59.732883 13.652973-116.052773 40.95992-167.252674 27.306947-52.906897 66.55987-95.572813 116.052774-129.706746 17.066967-11.946977 27.306947-27.306947 30.71994-46.07991 3.412993-20.47996 0-37.546927-11.946977-54.612894-13.652973-18.772963-29.012943-27.306947-49.492903-30.71994s-37.546927 0-54.612894 11.946977c-34.132933 23.892953-64.852873 51.1999-92.15982 81.91984s-49.492903 63.146877-68.266866 98.986807c-18.772963 35.83993-34.132933 73.386857-42.666917 112.63978-10.23998 40.95992-15.35997 81.91984-15.35997 122.87976 0 69.972863 13.652973 136.532733 40.95992 197.972613s63.146877 116.052773 109.226787 162.132683c46.07991 46.07991 100.692803 81.91984 162.132683 109.226787 63.146877 27.306947 129.706747 40.95992 199.67961 40.95992s136.532733-13.652973 197.972613-40.95992c61.43988-27.306947 116.052773-63.146877 163.83968-109.226787 46.07991-46.07991 83.626837-98.986807 109.226787-162.132683 27.306947-61.43988 39.252923-127.99975 39.252923-197.972613 1.706997-39.252923-3.412993-80.212843-11.946976-117.75977zM517.11999 546.131933c18.772963 0 34.132933-6.826987 47.786907-20.47996s20.47996-29.012943 20.47996-47.786906v-409.5992c0-18.772963-6.826987-34.132933-20.47996-47.786907S535.893953-0.001 517.11999-0.001c-18.772963 0-35.83993 6.826987-49.492903 20.47996s-20.47996 29.012943-20.47996 47.786907v409.5992c0 18.772963 6.826987 34.132933 20.47996 47.786906s29.012943 20.47996 49.492903 20.47996z" fill="#8a8b8b" p-id="20296"></path></svg>