<?xml version="1.0" standalone="no"?><!DOCTYPE svg PUBLIC "-//W3C//DTD SVG 1.1//EN" "http://www.w3.org/Graphics/SVG/1.1/DTD/svg11.dtd"><svg t="1716300839090" class="icon" viewBox="0 0 1024 1024" version="1.1" xmlns="http://www.w3.org/2000/svg" p-id="15960" xmlns:xlink="http://www.w3.org/1999/xlink" width="200" height="200"><path d="M941.056 85.504m-82.944 0a82.944 82.944 0 1 0 165.888 0 82.944 82.944 0 1 0-165.888 0Z" fill="#707070" p-id="15961"></path><path d="M684.032 139.264H53.76C24.064 139.264 0 115.2 0 85.504S24.064 31.744 53.76 31.744h630.272c29.696 0 53.76 24.064 53.76 53.76s-24.064 53.76-53.76 53.76z" fill="#707070" p-id="15962"></path><path d="M941.056 940.544m-82.944 0a82.944 82.944 0 1 0 165.888 0 82.944 82.944 0 1 0-165.888 0Z" fill="#707070" p-id="15963"></path><path d="M684.032 994.304H53.76c-29.696 0-53.76-24.064-53.76-53.76s24.064-53.76 53.76-53.76h630.272c29.696 0 53.76 24.064 53.76 53.76s-24.064 53.76-53.76 53.76z" fill="#707070" p-id="15964"></path><path d="M941.056 510.464m-82.944 0a82.944 82.944 0 1 0 165.888 0 82.944 82.944 0 1 0-165.888 0Z" fill="#707070" p-id="15965"></path><path d="M684.032 564.224H53.76C24.064 564.224 0 540.16 0 510.464s24.064-53.76 53.76-53.76h630.272c29.696 0 53.76 24.064 53.76 53.76s-24.064 53.76-53.76 53.76z" fill="#707070" p-id="15966"></path></svg>