<?xml version="1.0" standalone="no"?><!DOCTYPE svg PUBLIC "-//W3C//DTD SVG 1.1//EN" "http://www.w3.org/Graphics/SVG/1.1/DTD/svg11.dtd"><svg t="1716603661043" class="icon" viewBox="0 0 1024 1024" version="1.1" xmlns="http://www.w3.org/2000/svg" p-id="6740" xmlns:xlink="http://www.w3.org/1999/xlink" width="200" height="200"><path d="M496.6 750.3c-0.5 0.1-0.9 0.1-1.4 0.2 0.4 0 0.9-0.1 1.4-0.2z m0 0" p-id="6741" fill="#8a8a8a"></path><path d="M703.6 304.3V174.9c0-38.6-31.6-70.2-70.2-70.2H274.2l-0.9 0.5c-5.4 0.1-10.8 2-15.3 5.7L72.6 268.7c-5 4.3-7.8 10.1-8.5 16.2h-0.3V849c0 38.6 31.6 70.2 70.2 70.2h499.4c38.6 0 70.2-31.6 70.2-70.2V732.3c-4.4 2.5-9 4.7-13.8 6.3l-35.3 11.8V849c0 11.4-9.6 21.1-21 21.1H134c-11.4 0-21.1-9.7-21.1-21.1V298.9L267 167.8V312h-76.9v49.1H316l0.1-207.3h317.2c11.4 0 21 9.6 21 21.1v178.6l49.3-49.2z m0 0" p-id="6742" fill="#8a8a8a"></path><path d="M507.5 500.4l22.6-22.6h-319c-13.6 0-24.6 11-24.6 24.6 0 13.6 11 24.6 24.6 24.6h279.4l0.1-0.3c5.5-14.3 14.8-26.1 26.7-34.5l-9.8 8.2z m-82.4 201.2h-214c-13.6 0-24.6 11-24.6 24.6 0 13.6 11 24.6 24.6 24.6h214.1c-2.7-7.4-4.3-15.8-4.3-24.7 0-8.8 1.5-17.2 4.3-24.9l-0.1 0.4z m-214-111.9c-13.6 0-24.6 11-24.6 24.6 0 13.6 11 24.6 24.6 24.6h237.4l18.4-49.1H211.1z m286.3 160.5c-0.3 0-0.6 0.1-0.8 0.1 0.2 0 0.5-0.1 0.8-0.1z m0 0" p-id="6743" fill="#8a8a8a"></path><path d="M924.4 444.7l34.7-34.7-145.9-145.8-271 271c-3.4 3.4-5.8 7.9-6.8 12.8l-63.9 169.4c-1 2.6-1.6 5.5-1.6 8.6 0 6.6 2.6 12.6 6.9 17.1 4.5 4.6 10.7 7.5 17.7 7.5 2.6 0 5.2-0.4 7.8-1.3l172-57.3c5-1.7 9.1-4.8 12.1-8.8L887 482.9l-34.7-34.7-169.8 169.7-76.8-76.8 207.6-207.6 111.1 111.2zM645.1 649.9l-79.6 26.5-19.1-18.8 29-77.3 69.7 69.6z m0 0" p-id="6744" fill="#8a8a8a"></path></svg>