<?xml version="1.0" standalone="no"?><!DOCTYPE svg PUBLIC "-//W3C//DTD SVG 1.1//EN" "http://www.w3.org/Graphics/SVG/1.1/DTD/svg11.dtd"><svg t="1712218101976" class="icon" viewBox="0 0 1024 1024" version="1.1" xmlns="http://www.w3.org/2000/svg" p-id="18847" xmlns:xlink="http://www.w3.org/1999/xlink" width="200" height="200"><path d="M108.8 181.76l-10.88-37.12a39.04 39.04 0 0 0-27.52 37.12zM512 64l10.88-37.12a41.6 41.6 0 0 0-21.76 0L512 64z m403.2 117.76h38.4a39.04 39.04 0 0 0-27.52-37.12l-10.88 37.12zM512 960l-12.16 36.48a39.68 39.68 0 0 0 24.32 0L512 960zM119.68 218.88l403.2-117.76L501.12 26.88l-403.2 117.76 21.76 74.24z m384-117.76l403.2 117.76 21.76-74.24L522.88 26.88l-21.76 74.24z m373.12 80.64v241.28h76.8V181.76z m0 241.28a524.16 524.16 0 0 1-376.96 500.48l24.32 72.96a600.96 600.96 0 0 0 429.44-576z m-352.64 500.48A524.16 524.16 0 0 1 147.2 423.04H70.4a600.96 600.96 0 0 0 429.44 576l24.32-72.96zM147.2 423.04V181.76H70.4v241.28zM568.96 736a33.92 33.92 0 0 1-32-23.04 27.52 27.52 0 0 0-49.92 0 33.28 33.28 0 0 1-40.96 21.76 236.16 236.16 0 0 1-101.12-64 33.28 33.28 0 0 1 0-44.16 28.8 28.8 0 0 0 6.4-17.28 26.24 26.24 0 0 0-26.88-26.24 40.32 40.32 0 0 1-38.4-26.24 231.04 231.04 0 0 1-5.76-44.8 233.6 233.6 0 0 1 10.88-69.76 32.64 32.64 0 0 1 28.8-22.4 26.88 26.88 0 0 0 27.52-26.24 26.24 26.24 0 0 0 0-12.16 32.64 32.64 0 0 1 7.68-38.4A225.28 225.28 0 0 1 448 289.28a32.64 32.64 0 0 1 38.4 16.64 27.52 27.52 0 0 0 47.36 0A32.64 32.64 0 0 1 576 289.28a225.28 225.28 0 0 1 95.36 53.76 32.64 32.64 0 0 1 7.68 38.4 26.24 26.24 0 0 0-3.2 12.16 26.88 26.88 0 0 0 26.88 26.24 33.92 33.92 0 0 1 32 23.04A233.6 233.6 0 0 1 743.68 512a231.04 231.04 0 0 1-4.48 46.72 34.56 34.56 0 0 1-35.2 26.24 25.6 25.6 0 0 0-30.08 26.24 28.8 28.8 0 0 0 6.4 17.28 33.28 33.28 0 0 1 0 44.16 232.32 232.32 0 0 1-101.12 64zM512 628.48a94.08 94.08 0 0 1 71.68 33.28 211.84 211.84 0 0 0 30.08-18.56 87.68 87.68 0 0 1-5.76-31.36 92.8 92.8 0 0 1 69.12-89.6v-9.6a167.04 167.04 0 0 0-3.2-30.72 92.16 92.16 0 0 1-64-88.32 124.16 124.16 0 0 1 0-15.36A161.92 161.92 0 0 0 576 360.32a96 96 0 0 1-128 0 161.92 161.92 0 0 0-32.64 17.92 124.16 124.16 0 0 1 0 15.36 93.44 93.44 0 0 1-64 88.96 154.88 154.88 0 0 0 0 30.08v9.6a92.8 92.8 0 0 1 64.64 89.6 87.68 87.68 0 0 1-5.76 31.36 211.84 211.84 0 0 0 30.08 18.56A94.08 94.08 0 0 1 512 628.48z" fill="#bfbfbf" p-id="18848"></path><path d="M512 615.04A103.04 103.04 0 1 1 614.4 512 102.4 102.4 0 0 1 512 615.04z m0-138.88a36.48 36.48 0 0 0-36.48 35.84 36.48 36.48 0 0 0 72.96 0A36.48 36.48 0 0 0 512 476.16z" fill="#8a8b8b" p-id="18849"></path></svg>